<svg width="32" height="32" viewBox="0 0 32 32" fill="none" xmlns="http://www.w3.org/2000/svg">
<path fill-rule="evenodd" clip-rule="evenodd" d="M23.7303 21.0089C23.5397 21.1782 23.3037 21.2609 23.0663 21.2609C22.7917 21.2609 22.517 21.1475 22.3183 20.9262L18.589 16.7302L18.3583 16.9155C17.633 17.4582 16.809 17.7289 15.9903 17.7289C15.1783 17.7289 14.3703 17.4635 13.665 16.9329L13.477 16.7835L9.66901 20.9369C9.47301 21.1515 9.20234 21.2609 8.93167 21.2609C8.69034 21.2609 8.44767 21.1742 8.25701 20.9982C7.84901 20.6262 7.82101 19.9929 8.19567 19.5862L11.9117 15.5315L8.30634 12.6488C7.87567 12.3035 7.80634 11.6755 8.15034 11.2435C8.49834 10.8128 9.12634 10.7448 9.55701 11.0862L14.8903 15.3529C15.573 15.8662 16.421 15.8662 17.133 15.3342L22.441 11.0862C22.873 10.7448 23.501 10.8128 23.8477 11.2435C24.193 11.6755 24.1223 12.3035 23.6917 12.6488L20.153 15.4795L23.813 19.5969C24.181 20.0102 24.1437 20.6422 23.7303 21.0089ZM21.8663 4.53418H10.133C6.19301 4.53418 3.33301 7.61951 3.33301 11.8675V20.1342C3.33301 24.3142 6.25567 27.4675 10.133 27.4675H21.8663C25.8063 27.4675 28.6663 24.3822 28.6663 20.1342V11.8675C28.6663 7.68751 25.7423 4.53418 21.8663 4.53418Z" fill="white"/>
</svg>
