<svg width="375" height="88" viewBox="0 0 375 88" fill="none" xmlns="http://www.w3.org/2000/svg">
<path fill-rule="evenodd" clip-rule="evenodd" d="M44.0921 0C35.0946 0 29.3795 11.1976 17.9495 33.5927L11.8107 45.6207C2.12465 64.5987 -2.71835 74.0877 1.57271 81.0438C5.86378 88 16.5603 88 37.9533 88H50.2309C71.6239 88 82.3204 88 86.6115 81.0438C90.9026 74.0877 86.0595 64.5987 76.3735 45.6207L70.2347 33.5927C58.8047 11.1976 53.0896 0 44.0921 0ZM30.0064 35.5878L23.355 42.6867C12.8602 53.8877 7.61289 59.4882 9.2019 65.1445C10.7909 70.8009 18.2059 72.9163 33.0358 77.1472L41.5468 79.5753C56.3767 83.8062 63.7916 85.9216 68.1519 81.9625C72.5121 78.0035 71.045 70.4874 68.1108 55.4553L66.2512 45.9282C62.7886 28.1894 61.0573 19.3199 54.8201 17.5405C48.5829 15.7611 42.3907 22.37 30.0064 35.5878ZM55.1998 36.6069C52.1281 34.6972 47.7834 37.2956 39.0939 42.4923L34.427 45.2833C27.0633 49.6871 23.3815 51.8889 23.3594 55.1674C23.3373 58.4458 26.989 60.716 34.2923 65.2565L38.4838 67.8624C45.7871 72.4029 49.4388 74.6731 52.3907 73.2162C55.3427 71.7593 55.7178 67.5016 56.468 58.9863L56.9435 53.5894C57.8288 43.5408 58.2715 38.5165 55.1998 36.6069ZM54.0417 46.1024C52.5094 44.4092 49.4138 45.235 43.2226 46.8867L39.8975 47.7737C34.651 49.1733 32.0277 49.8732 31.44 51.8618C30.8524 53.8504 32.674 55.8632 36.3173 59.889L38.4081 62.1994C42.0514 66.2251 43.873 68.238 45.9222 67.8644C47.9714 67.4908 48.9452 64.9682 50.8926 59.9232L52.1269 56.7257C54.425 50.7723 55.574 47.7956 54.0417 46.1024Z" fill="white"/>
<path d="M131.67 28.9161C136.845 28.9161 140.995 30.2877 144.121 33.031C147.302 35.7742 148.892 39.6471 148.892 44.6496V61.7547H139.27V57.7205H139.189C135.901 61.163 131.347 62.8843 125.525 62.8843C122.183 62.7767 119.731 61.7547 118.167 59.8183C116.55 57.7743 115.742 55.5151 115.742 53.0408C115.742 49.9209 116.874 47.4735 119.138 45.6985C121.402 43.9234 124.097 43.0359 127.223 43.0359H139.27C139.162 41.2608 138.516 39.8085 137.33 38.6789C136.144 37.4955 134.473 36.9038 132.317 36.9038C130.861 36.9038 129.541 37.1728 128.355 37.7107C127.223 38.2486 126.468 38.8403 126.091 39.4857L125.606 40.3733L116.874 38.1141C119.192 31.9821 124.124 28.9161 131.67 28.9161ZM129.406 55.8647C131.939 55.7571 134.203 55.0848 136.198 53.8476C138.246 52.4491 139.27 50.7278 139.27 48.6838H133.934C131.131 48.6838 129.083 48.9527 127.789 49.4906C126.549 49.9747 125.822 50.9161 125.606 52.3146C125.444 53.3904 125.66 54.251 126.253 54.8965C126.846 55.4882 127.897 55.8109 129.406 55.8647Z" fill="white"/>
<path d="M176.892 61.674C173.011 62.9112 169.4 63.4222 166.058 63.207C162.554 62.9918 159.455 62.0236 156.76 60.3024C154.119 58.5811 152.448 56.4295 151.747 53.8476L159.913 51.6691C160.344 53.0139 161.476 53.9552 163.309 54.4931C164.818 55.1923 167.028 55.4344 169.939 55.2192C172.796 55.0041 174.601 54.2779 175.356 53.0408C175.679 52.5029 175.706 51.9381 175.437 51.3464C175.167 50.7009 174.655 50.2706 173.901 50.0554C173.362 49.9478 170.855 49.6789 166.381 49.2486C162.231 48.8721 159.455 48.4686 158.053 48.0383C155.628 47.1777 153.93 45.7522 152.96 43.762C152.043 41.718 151.989 39.3782 152.798 36.7425C153.66 33.9992 155.709 31.9283 158.943 30.5297C162.231 29.1312 166.166 28.6471 170.747 29.0774C174.035 29.3464 176.758 30.2608 178.914 31.8207C181.124 33.3268 182.498 35.2901 183.037 37.7107L175.275 39.8085C174.628 37.9796 172.607 36.85 169.211 36.4197C165.977 36.0432 163.551 36.4735 161.934 37.7107C161.18 38.4099 160.856 39.0823 160.964 39.7278C161.072 40.3733 161.557 40.8843 162.42 41.2608C162.797 41.5298 164.872 41.7987 168.645 42.0676L174.386 42.3904C177.027 42.7131 179.048 43.3855 180.45 44.4075C181.905 45.4295 182.929 47.0701 183.522 49.3293C184.115 51.9112 183.792 54.3586 182.552 56.6716C181.312 58.9845 179.426 60.652 176.892 61.674Z" fill="white"/>
<path d="M202.018 30.3684H209.942V39.163H202.099V45.1337C202.099 52.0187 204.282 54.762 208.648 53.3635V62.5615C207.301 62.8305 206.196 62.965 205.333 62.965C201.075 62.965 197.733 61.7547 195.307 59.3342C192.882 56.8598 191.669 53.229 191.669 48.4417V39.163H186.252V30.3684C189.324 30.3684 191.372 29.8574 192.397 28.8354C193.421 27.7596 194.229 25.5004 194.822 22.0579H202.018V30.3684Z" fill="white"/>
<path d="M227.6 30.3684V34.9674C229.271 32.3317 231.616 30.5297 234.634 29.5615C237.653 28.5933 240.537 28.7009 243.286 29.8843L240.294 39.4857C240.24 39.432 239.998 39.3244 239.566 39.163C239.189 39.0016 238.542 38.8672 237.626 38.7596C236.763 38.652 235.847 38.6251 234.877 38.6789C230.026 39.1092 227.6 42.1214 227.6 47.7156V61.7547H217.251V30.3684H227.6Z" fill="white"/>
<path d="M259.425 28.9161C264.599 28.9161 268.75 30.2877 271.876 33.031C275.056 35.7742 276.647 39.6471 276.647 44.6496V61.7547H267.025V57.7205H266.944C263.656 61.163 259.101 62.8843 253.28 62.8843C249.938 62.7767 247.485 61.7547 245.922 59.8183C244.305 57.7743 243.497 55.5151 243.497 53.0408C243.497 49.9209 244.629 47.4735 246.892 45.6985C249.156 43.9234 251.851 43.0359 254.978 43.0359H267.025C266.917 41.2608 266.27 39.8085 265.085 38.6789C263.899 37.4955 262.228 36.9038 260.072 36.9038C258.616 36.9038 257.296 37.1728 256.11 37.7107C254.978 38.2486 254.223 38.8403 253.846 39.4857L253.361 40.3733L244.629 38.1141C246.946 31.9821 251.878 28.9161 259.425 28.9161ZM257.161 55.8647C259.694 55.7571 261.958 55.0848 263.953 53.8476C266.001 52.4491 267.025 50.7278 267.025 48.6838H261.689C258.886 48.6838 256.837 48.9527 255.544 49.4906C254.304 49.9747 253.576 50.9161 253.361 52.3146C253.199 53.3904 253.415 54.251 254.008 54.8965C254.601 55.4882 255.652 55.8109 257.161 55.8647Z" fill="white"/>
<path d="M294.32 61.674H283.971V13.6667H294.32V61.674Z" fill="white"/>
<path d="M326.643 44.4075V30.3684H336.992V58.608C336.992 64.4711 335.375 69.4466 332.141 73.5347C328.907 77.6227 324.595 79.6667 319.205 79.6667C313.76 79.5591 308.721 76.8427 304.085 71.5175L309.26 65.3048C312.386 68.586 315.728 70.0921 319.285 69.8232C324.514 69.5004 326.967 65.009 326.643 56.3488C323.894 60.3293 320.094 62.3195 315.243 62.3195C311.47 62.3195 308.235 60.9747 305.54 58.2853C302.899 55.6496 301.578 52.2339 301.578 48.0383V30.3684H311.847V44.4075C311.847 46.6129 312.548 48.4955 313.949 50.0554C315.404 51.6153 317.156 52.3953 319.205 52.3953C321.253 52.3953 323.005 51.6153 324.46 50.0554C325.915 48.4955 326.643 46.6129 326.643 44.4075Z" fill="white"/>
<path d="M363.273 30.3684H374.431L362.465 46.4246L373.219 61.7547H362.061L356.239 53.4442L350.014 61.7547H338.775L350.741 45.6985L339.988 30.3684H351.145L357.048 38.7596L363.273 30.3684Z" fill="white"/>
</svg>
