<svg width="294" height="60" viewBox="0 0 294 60" fill="none" xmlns="http://www.w3.org/2000/svg">
<path fill-rule="evenodd" clip-rule="evenodd" d="M60.5356 16.3107C60.5356 7.30254 53.1679 0 44.0793 0H16.4563C7.36773 0 0 7.30254 0 16.3107V43.6893C0 52.6975 7.36773 60 16.4563 60H44.0793C53.1679 60 60.5356 52.6975 60.5356 43.6893V16.3107ZM13.5177 30C13.5177 25.6671 15.2603 21.7027 18.0143 18.7463L17.9538 30L18.0143 42.2234H25.569V46.6019H13.5177L13.5177 30ZM30.3378 42.2234C36.4072 42.2234 41.4569 37.9138 42.5172 32.2258H47.008C45.9066 40.3423 38.8627 46.6019 30.3378 46.6019H30.0051V42.2234H30.3378ZM30.3378 13.3981C38.8886 13.3981 45.9483 19.6953 47.018 27.8472H42.5307C41.4998 22.1231 36.4331 17.7766 30.3378 17.7766C27.3127 17.7766 24.5404 18.8473 22.39 20.6257L22.39 15.3648C24.7567 14.1099 27.4632 13.3981 30.3378 13.3981ZM168.741 40.1623C167.93 40.7539 167.524 41.7855 167.524 43.257C167.524 44.6526 167.93 45.6614 168.741 46.2834C169.568 46.9053 170.563 47.2163 171.726 47.2163C172.843 47.2163 173.807 46.9053 174.618 46.2834C175.445 45.6614 175.858 44.6526 175.858 43.257C175.858 41.7855 175.445 40.7539 174.618 40.1623C173.807 39.5707 172.843 39.2749 171.726 39.2749C170.563 39.2749 169.568 39.5707 168.741 40.1623ZM250.563 19.0231C249.247 19.0231 248.084 19.2809 247.074 19.7967C246.079 20.2973 245.23 21.0255 244.526 21.9812C243.837 22.9369 243.316 24.0974 242.964 25.4627C242.612 26.828 242.436 28.3601 242.436 30.0592C242.436 32.365 242.72 34.3295 243.286 35.9527C243.867 37.5607 244.763 38.7894 245.972 39.639C247.196 40.4885 248.757 40.9132 250.655 40.9132C252.048 40.9132 253.426 40.7539 254.788 40.4354C256.165 40.1016 257.642 39.6541 259.219 39.0928V45.3277C257.734 45.9345 256.257 46.3744 254.788 46.6475C253.334 46.9205 251.711 47.057 249.921 47.057C246.431 47.057 243.561 46.3516 241.311 44.9408C239.077 43.5149 237.416 41.5276 236.33 38.9791C235.258 36.4153 234.722 33.4269 234.722 30.0137C234.722 27.4954 235.067 25.1896 235.756 23.0962C236.46 21.0027 237.477 19.1899 238.809 17.6578C240.156 16.1256 241.816 14.9424 243.791 14.108C245.765 13.2737 248.03 12.8565 250.586 12.8565C252.239 12.8565 253.915 13.0613 255.614 13.4709C257.313 13.8805 258.943 14.4569 260.504 15.2002L258.117 21.1848C256.877 20.5931 255.622 20.085 254.352 19.6602C253.081 19.2354 251.819 19.0231 250.563 19.0231ZM74.6364 13.3343V46.6019H95.62V40.5036H82.1207V13.3343H74.6364ZM101.36 46.6019V13.3343H108.867V46.6019H101.36ZM117.109 46.6019H124.478V33.5862H135.613V27.5334H124.478V19.3871H136.462V13.3343H117.109V46.6019ZM162.267 46.6019H142.822V13.3343H162.267V19.3871H150.306V26.3046H161.418V32.3574H150.306V40.4809H162.267V46.6019ZM195.832 46.6019H188.347V19.4782H179.417V13.3343H204.785V19.4782H195.832V46.6019ZM209.905 46.6019H229.35V40.4809H217.389V32.3574H228.501V26.3046H217.389V19.3871H229.35V13.3343H209.905V46.6019ZM286.516 46.6019H294V13.3343H286.516V26.2363H273.751V13.3343H266.244V46.6019H273.751V32.4029H286.516V46.6019Z" fill="white"/>
</svg>
