<svg width="405" height="88" viewBox="0 0 405 88" fill="none" xmlns="http://www.w3.org/2000/svg">
<path d="M31.8844 5.6921C35.93 11.3009 34.6956 19.1513 29.1274 23.2265C23.5592 27.3016 15.7659 26.0582 11.7203 20.4492L3.94263 26.1412C11.109 36.0771 24.9144 38.2797 34.7782 31.0609C44.6417 23.8421 46.8285 9.93576 39.662 0L31.8844 5.6921Z" fill="white"/>
<path d="M18.674 55.4688C16.5471 48.8751 9.51645 45.2668 2.97073 47.4091L0 38.1992C11.5953 34.4042 24.0494 40.7961 27.8171 52.4763C31.5845 64.1564 25.2391 76.7017 13.6435 80.4967L10.6728 71.2867C17.2185 69.1444 20.8008 62.0626 18.674 55.4688Z" fill="white"/>
<path d="M58.3477 88C58.3477 81.067 52.7683 75.4468 45.8855 75.4468C39.0028 75.4468 33.4234 81.067 33.4234 88H23.8097C23.8097 75.7187 33.6933 65.7629 45.8855 65.7629C58.0777 65.7629 67.9614 75.7187 67.9614 88H58.3477Z" fill="white"/>
<path d="M60.0426 5.74315C55.9971 11.352 57.2314 19.2024 62.7996 23.2776C68.3679 27.3526 76.1613 26.1091 80.2068 20.5003L87.9844 26.1924C80.8181 36.128 67.0126 38.3306 57.1489 31.1121C47.2854 23.8933 45.0986 9.98681 52.265 0.0510489L60.0426 5.74315Z" fill="white"/>
<path d="M73.1568 55.5514C75.2835 48.9578 82.3141 45.3493 88.8599 47.4917L91.8308 38.2818C80.2353 34.4866 67.781 40.8787 64.0136 52.559C60.2459 64.2391 66.5918 76.7841 78.1871 80.5793L81.158 71.3694C74.6121 69.2269 71.0299 62.1448 73.1568 55.5514Z" fill="white"/>
<path d="M313.55 18.4529V70.6593H322.08V18.4529H313.55Z" fill="white"/>
<path d="M336.992 87.7062L343.278 70.3921L327.828 32.3037H336.71L347.381 59.7516L357.764 32.3037H366.294L344.99 87.7062H336.992Z" fill="white"/>
<path d="M366.617 70.6593L380.595 51.2684L366.902 32.3037H376.95L385.55 44.5562L394.007 32.3037H404.058L390.362 51.2684L404.41 70.6593H394.362L385.55 57.9807L376.668 70.6593H366.617Z" fill="white"/>
<path fill-rule="evenodd" clip-rule="evenodd" d="M283.459 71.7247C280.698 71.7247 278.363 71.2039 276.452 70.1621C274.541 69.0967 273.09 67.6879 272.1 65.9359C271.132 64.1838 270.649 62.2542 270.649 60.147C270.649 58.3003 270.956 56.6429 271.569 55.175C272.182 53.6834 273.126 52.4049 274.4 51.3395C275.674 50.2503 277.325 49.3625 279.354 48.6759C280.887 48.1787 282.68 47.7288 284.732 47.3263C286.808 46.9238 289.05 46.5568 291.456 46.2254C292.925 46.0105 294.434 45.7871 295.979 45.555C295.83 43.5423 295.254 42.0137 294.252 40.9692C293.048 39.7144 291.019 39.087 288.165 39.087C286.443 39.087 284.78 39.4895 283.175 40.2945C281.571 41.0994 280.451 42.4845 279.814 44.4496L272.029 41.9991C272.973 38.7555 274.765 36.1511 277.408 34.186C280.073 32.2208 283.659 31.2383 288.165 31.2383C291.562 31.2383 294.546 31.7947 297.116 32.9074C299.713 34.0202 301.636 35.8433 302.885 38.3767C303.569 39.7262 303.983 41.1113 304.124 42.5319C304.265 43.9288 304.336 45.4559 304.336 47.1132V70.6593H296.869V65.4979C295.439 67.3686 293.835 68.8049 292.057 69.807C289.769 71.0855 286.903 71.7247 283.459 71.7247ZM285.157 64.906C287.092 64.906 288.743 64.5627 290.111 63.876C291.479 63.1894 292.565 62.3489 293.365 61.3545C294.194 60.3601 294.746 59.4249 295.031 58.5489C295.477 57.4598 295.727 56.2168 295.774 54.8199C295.815 53.9743 295.844 53.2253 295.862 52.5727C294.384 52.8083 293.057 53.0246 291.88 53.2217C290.04 53.5295 288.46 53.8255 287.139 54.1096C285.818 54.37 284.65 54.666 283.635 54.9974C282.645 55.3526 281.807 55.7669 281.123 56.2404C280.439 56.714 279.908 57.2585 279.531 57.8741C279.177 58.4897 279 59.2118 279 60.0405C279 60.9875 279.236 61.8281 279.708 62.562C280.179 63.2723 280.863 63.8405 281.76 64.2667C282.68 64.6929 283.812 64.906 285.157 64.906Z" fill="white"/>
<path d="M246.114 32.3037V70.6593H254.677V51.1619C254.677 49.6939 254.854 48.3326 255.208 47.0777C255.562 45.7992 256.104 44.6627 256.835 43.6683C257.591 42.6739 258.558 41.8571 259.737 41.2178C260.917 40.5075 262.238 40.0932 263.7 39.9748C265.187 39.8564 266.496 39.963 267.628 40.2945V32.3037C266.496 32.1143 265.328 32.0669 264.125 32.1616C262.922 32.2327 261.742 32.4576 260.587 32.8364C259.454 33.1916 258.416 33.6888 257.473 34.328C256.364 35.0146 255.408 35.8907 254.606 36.9561C254.257 37.4237 253.938 37.915 253.651 38.4299V32.3037H246.114Z" fill="white"/>
<path d="M238.6 70.6593C236.076 71.1328 233.599 71.3341 231.169 71.2631C228.763 71.2157 226.604 70.7777 224.693 69.949C222.783 69.0967 221.332 67.759 220.341 65.9359C219.468 64.2786 219.008 62.5857 218.961 60.8573C218.914 59.129 218.89 57.1757 218.89 54.9974V39.0159H211.955V32.3037H218.89V21.6493H227.383V32.3037H238.6V39.0159H227.383V54.5002C227.383 56.0392 227.395 57.3887 227.418 58.5489C227.465 59.709 227.713 60.6561 228.161 61.39C229.01 62.8106 230.367 63.6038 232.231 63.7695C234.094 63.9352 236.218 63.8405 238.6 63.4854V70.6593Z" fill="white"/>
<path d="M181.878 68.5284C184.827 70.6593 188.66 71.7247 193.379 71.7247C198.309 71.7247 202.166 70.6238 204.95 68.4219C207.757 66.22 209.161 63.1894 209.161 59.3302C209.161 57.3414 208.748 55.6485 207.922 54.2516C207.12 52.8547 205.799 51.6591 203.959 50.6647C202.142 49.6466 199.713 48.7469 196.669 47.9656C193.697 47.2079 191.456 46.5687 189.946 46.0478C188.46 45.5269 187.469 45.006 186.974 44.4852C186.478 43.9643 186.23 43.3369 186.23 42.6029C186.23 41.3007 186.844 40.2945 188.071 39.5842C189.297 38.8502 190.913 38.5424 192.919 38.6608C195.018 38.7792 196.693 39.3119 197.943 40.2589C199.217 41.206 199.96 42.4964 200.173 44.13L208.877 42.5674C208.547 40.2708 207.674 38.2701 206.259 36.5654C204.843 34.8607 202.98 33.5467 200.668 32.6233C198.38 31.7 195.749 31.2383 192.777 31.2383C189.734 31.2383 187.092 31.7236 184.851 32.6944C182.609 33.6414 180.864 35.0028 179.614 36.7785C178.363 38.5542 177.738 40.6378 177.738 43.0291C177.738 44.9468 178.151 46.5805 178.976 47.9301C179.802 49.2796 181.158 50.4516 183.046 51.446C184.933 52.4167 187.481 53.3283 190.689 54.1806C193.567 54.9382 195.702 55.5657 197.094 56.0629C198.486 56.5601 199.382 57.081 199.784 57.6255C200.208 58.1464 200.42 58.8448 200.42 59.7209C200.42 61.1414 199.854 62.2661 198.722 63.0947C197.613 63.8997 196.032 64.3022 193.98 64.3022C191.645 64.3022 189.71 63.7577 188.177 62.6686C186.643 61.5795 185.652 60.0878 185.204 58.1937L176.499 59.5433C177.136 63.4025 178.929 66.3976 181.878 68.5284Z" fill="white"/>
<path fill-rule="evenodd" clip-rule="evenodd" d="M128.31 70.659L144.376 19.5183H156.867L172.932 70.659H164.156L160.636 59.5785H140.564L137.086 70.659H128.31ZM150.538 27.7999L158.097 51.5878H143.072L150.538 27.7999Z" fill="white"/>
</svg>
