<svg width="379" height="92" viewBox="0 0 379 92" fill="none" xmlns="http://www.w3.org/2000/svg">
<g filter="url(#filter0_d_8975_8401)">
<path fill-rule="evenodd" clip-rule="evenodd" d="M46.0823 0C37.0848 0 31.3698 11.1976 19.9397 33.5927L13.8009 45.6207C4.11489 64.5987 -0.728117 74.0877 3.56295 81.0438C7.85402 88 18.5505 88 39.9435 88H52.2212C73.6142 88 84.3107 88 88.6017 81.0438C92.8928 74.0877 88.0498 64.5987 78.3638 45.6207L72.225 33.5927C60.7949 11.1976 55.0799 0 46.0823 0ZM31.9966 35.5878L25.3452 42.6867C14.8505 53.8877 9.60312 59.4882 11.1921 65.1445C12.7811 70.8009 20.1961 72.9163 35.026 77.1472L43.537 79.5753C58.3669 83.8062 65.7819 85.9216 70.1421 81.9625C74.5023 78.0035 73.0352 70.4874 70.101 55.4553L68.2414 45.9282C64.7789 28.1894 63.0476 19.3199 56.8104 17.5405C50.5732 15.7611 44.381 22.37 31.9966 35.5878ZM57.19 36.6069C54.1184 34.6972 49.7736 37.2956 41.0841 42.4923L36.4172 45.2833C29.0536 49.6871 25.3718 51.8889 25.3497 55.1674C25.3276 58.4458 28.9792 60.716 36.2826 65.2565L40.474 67.8624C47.7773 72.4029 51.429 74.6731 54.3809 73.2162C57.3329 71.7593 57.708 67.5016 58.4582 58.9863L58.9337 53.5894C59.819 43.5408 60.2617 38.5165 57.19 36.6069ZM56.032 46.1024C54.4997 44.4092 51.4041 45.235 45.2129 46.8867L41.8877 47.7737C36.6412 49.1733 34.0179 49.8732 33.4303 51.8618C32.8426 53.8504 34.6642 55.8632 38.3075 59.889L40.3984 62.1994C44.0416 66.2251 45.8633 68.238 47.9125 67.8644C49.9617 67.4908 50.9354 64.9682 52.8829 59.9232L54.1171 56.7257C56.4152 50.7723 57.5643 47.7956 56.032 46.1024Z" fill="white"/>
<path d="M133.66 28.9161C138.835 28.9161 142.985 30.2877 146.112 33.031C149.292 35.7742 150.882 39.6471 150.882 44.6496V61.7547H141.26V57.7205H141.18C137.891 61.163 133.337 62.8843 127.515 62.8843C124.173 62.7767 121.721 61.7547 120.158 59.8183C118.541 57.7743 117.732 55.5151 117.732 53.0408C117.732 49.9209 118.864 47.4735 121.128 45.6985C123.392 43.9234 126.087 43.0359 129.213 43.0359H141.26C141.153 41.2608 140.506 39.8085 139.32 38.6789C138.134 37.4955 136.463 36.9038 134.307 36.9038C132.852 36.9038 131.531 37.1728 130.345 37.7107C129.213 38.2486 128.459 38.8403 128.081 39.4857L127.596 40.3733L118.864 38.1141C121.182 31.9821 126.114 28.9161 133.66 28.9161ZM131.396 55.8647C133.93 55.7571 136.194 55.0848 138.188 53.8476C140.236 52.4491 141.26 50.7278 141.26 48.6838H135.924C133.121 48.6838 131.073 48.9527 129.779 49.4906C128.539 49.9747 127.812 50.9161 127.596 52.3146C127.434 53.3904 127.65 54.251 128.243 54.8965C128.836 55.4882 129.887 55.8109 131.396 55.8647Z" fill="white"/>
<path d="M178.883 61.674C175.002 62.9112 171.39 63.4222 168.048 63.207C164.545 62.9918 161.445 62.0236 158.75 60.3024C156.109 58.5811 154.438 56.4295 153.737 53.8476L161.903 51.6691C162.335 53.0139 163.466 53.9552 165.299 54.4931C166.808 55.1923 169.018 55.4344 171.929 55.2192C174.786 55.0041 176.592 54.2779 177.346 53.0408C177.67 52.5029 177.697 51.9381 177.427 51.3464C177.158 50.7009 176.646 50.2706 175.891 50.0554C175.352 49.9478 172.845 49.6789 168.372 49.2486C164.221 48.8721 161.445 48.4686 160.044 48.0383C157.618 47.1777 155.92 45.7522 154.95 43.762C154.034 41.718 153.98 39.3782 154.788 36.7425C155.651 33.9992 157.699 31.9283 160.933 30.5297C164.221 29.1312 168.156 28.6471 172.738 29.0774C176.026 29.3464 178.748 30.2608 180.904 31.8207C183.114 33.3268 184.488 35.2901 185.027 37.7107L177.265 39.8085C176.619 37.9796 174.597 36.85 171.201 36.4197C167.967 36.0432 165.542 36.4735 163.925 37.7107C163.17 38.4099 162.847 39.0823 162.954 39.7278C163.062 40.3733 163.547 40.8843 164.41 41.2608C164.787 41.5298 166.862 41.7987 170.635 42.0676L176.376 42.3904C179.017 42.7131 181.039 43.3855 182.44 44.4075C183.895 45.4295 184.92 47.0701 185.513 49.3293C186.105 51.9112 185.782 54.3586 184.542 56.6716C183.303 58.9845 181.416 60.652 178.883 61.674Z" fill="white"/>
<path d="M204.008 30.3684H211.932V39.163H204.089V45.1337C204.089 52.0187 206.272 54.762 210.638 53.3635V62.5615C209.291 62.8305 208.186 62.965 207.323 62.965C203.065 62.965 199.723 61.7547 197.298 59.3342C194.872 56.8598 193.659 53.229 193.659 48.4417V39.163H188.242V30.3684C191.314 30.3684 193.363 29.8574 194.387 28.8354C195.411 27.7596 196.219 25.5004 196.812 22.0579H204.008V30.3684Z" fill="white"/>
<path d="M229.59 30.3684V34.9674C231.261 32.3317 233.606 30.5297 236.625 29.5615C239.643 28.5933 242.527 28.7009 245.276 29.8843L242.284 39.4857C242.23 39.432 241.988 39.3244 241.557 39.163C241.179 39.0016 240.532 38.8672 239.616 38.7596C238.754 38.652 237.837 38.6251 236.867 38.6789C232.016 39.1092 229.59 42.1214 229.59 47.7156V61.7547H219.241V30.3684H229.59Z" fill="white"/>
<path d="M261.415 28.9161C266.59 28.9161 270.74 30.2877 273.866 33.031C277.047 35.7742 278.637 39.6471 278.637 44.6496V61.7547H269.015V57.7205H268.934C265.646 61.163 261.092 62.8843 255.27 62.8843C251.928 62.7767 249.476 61.7547 247.912 59.8183C246.295 57.7743 245.487 55.5151 245.487 53.0408C245.487 49.9209 246.619 47.4735 248.883 45.6985C251.147 43.9234 253.842 43.0359 256.968 43.0359H269.015C268.907 41.2608 268.261 39.8085 267.075 38.6789C265.889 37.4955 264.218 36.9038 262.062 36.9038C260.606 36.9038 259.286 37.1728 258.1 37.7107C256.968 38.2486 256.213 38.8403 255.836 39.4857L255.351 40.3733L246.619 38.1141C248.937 31.9821 253.869 28.9161 261.415 28.9161ZM259.151 55.8647C261.685 55.7571 263.948 55.0848 265.943 53.8476C267.991 52.4491 269.015 50.7278 269.015 48.6838H263.679C260.876 48.6838 258.828 48.9527 257.534 49.4906C256.294 49.9747 255.567 50.9161 255.351 52.3146C255.189 53.3904 255.405 54.251 255.998 54.8965C256.591 55.4882 257.642 55.8109 259.151 55.8647Z" fill="white"/>
<path d="M296.31 61.674H285.961V13.6667H296.31V61.674Z" fill="white"/>
<path d="M328.633 44.4075V30.3684H338.983V58.608C338.983 64.4711 337.366 69.4466 334.131 73.5347C330.897 77.6227 326.585 79.6667 321.195 79.6667C315.751 79.5591 310.711 76.8427 306.075 71.5175L311.25 65.3048C314.376 68.586 317.718 70.0921 321.276 69.8232C326.504 69.5004 328.957 65.009 328.633 56.3488C325.884 60.3293 322.084 62.3195 317.233 62.3195C313.46 62.3195 310.226 60.9747 307.531 58.2853C304.889 55.6496 303.569 52.2339 303.569 48.0383V30.3684H313.837V44.4075C313.837 46.6129 314.538 48.4955 315.939 50.0554C317.395 51.6153 319.147 52.3953 321.195 52.3953C323.243 52.3953 324.995 51.6153 326.45 50.0554C327.906 48.4955 328.633 46.6129 328.633 44.4075Z" fill="white"/>
<path d="M365.264 30.3684H376.422L364.455 46.4246L375.209 61.7547H364.051L358.23 53.4442L352.004 61.7547H340.765L352.731 45.6985L341.978 30.3684H353.136L359.038 38.7596L365.264 30.3684Z" fill="white"/>
</g>
<defs>
<filter id="filter0_d_8975_8401" x="-0.00976562" y="0" width="378.432" height="92" filterUnits="userSpaceOnUse" color-interpolation-filters="sRGB">
<feFlood flood-opacity="0" result="BackgroundImageFix"/>
<feColorMatrix in="SourceAlpha" type="matrix" values="0 0 0 0 0 0 0 0 0 0 0 0 0 0 0 0 0 0 127 0" result="hardAlpha"/>
<feOffset dy="2"/>
<feGaussianBlur stdDeviation="1"/>
<feComposite in2="hardAlpha" operator="out"/>
<feColorMatrix type="matrix" values="0 0 0 0 0 0 0 0 0 0 0 0 0 0 0 0 0 0 0.12 0"/>
<feBlend mode="normal" in2="BackgroundImageFix" result="effect1_dropShadow_8975_8401"/>
<feBlend mode="normal" in="SourceGraphic" in2="effect1_dropShadow_8975_8401" result="shape"/>
</filter>
</defs>
</svg>
