<svg width="1200" height="1200" viewBox="0 0 1200 1200" fill="none" xmlns="http://www.w3.org/2000/svg">
<path fill-rule="evenodd" clip-rule="evenodd" d="M1198.96 0.178908C1199.2 0.417445 1199.2 0.804185 1198.96 1.04272L1195.06 4.93939C1194.83 5.17793 1194.44 5.17794 1194.2 4.9394C1193.96 4.70086 1193.96 4.31409 1194.2 4.07554L1198.1 0.178903C1198.33 -0.0596346 1198.72 -0.0596321 1198.96 0.178908ZM1184.69 14.4604C1184.93 14.6989 1184.93 15.0856 1184.69 15.3242L1176.04 23.9813C1175.8 24.2199 1175.41 24.2199 1175.17 23.9813C1174.93 23.7428 1174.93 23.356 1175.17 23.1175L1183.82 14.4604C1184.06 14.2218 1184.45 14.2218 1184.69 14.4604ZM1165.66 33.5023C1165.9 33.7408 1165.9 34.1276 1165.66 34.3661L1157.01 43.0233C1156.77 43.2618 1156.38 43.2618 1156.14 43.0233C1155.91 42.7847 1155.91 42.398 1156.14 42.1595L1164.8 33.5023C1165.03 33.2638 1165.42 33.2638 1165.66 33.5023ZM1146.63 52.5442C1146.87 52.7828 1146.87 53.1695 1146.63 53.4081L1137.98 62.0652C1137.74 62.3038 1137.35 62.3038 1137.12 62.0652C1136.88 61.8267 1136.88 61.4399 1137.12 61.2014L1145.77 52.5442C1146.01 52.3057 1146.39 52.3057 1146.63 52.5442ZM1127.6 71.5862C1127.84 71.8247 1127.84 72.2115 1127.6 72.45L1118.95 81.1072C1118.71 81.3457 1118.33 81.3457 1118.09 81.1071C1117.85 80.8686 1117.85 80.4819 1118.09 80.2433L1126.74 71.5862C1126.98 71.3476 1127.36 71.3476 1127.6 71.5862ZM1108.57 90.6281C1108.81 90.8667 1108.81 91.2534 1108.57 91.4919L1099.92 100.149C1099.68 100.388 1099.3 100.388 1099.06 100.149C1098.82 99.9106 1098.82 99.5238 1099.06 99.2853L1107.71 90.6281C1107.95 90.3896 1108.34 90.3896 1108.57 90.6281ZM1089.55 109.67C1089.78 109.909 1089.78 110.295 1089.55 110.534L1080.89 119.191C1080.66 119.43 1080.27 119.43 1080.03 119.191C1079.79 118.953 1079.79 118.566 1080.03 118.327L1088.68 109.67C1088.92 109.432 1089.31 109.432 1089.55 109.67ZM1070.52 128.712C1070.76 128.951 1070.76 129.337 1070.52 129.576L1061.87 138.233C1061.63 138.472 1061.24 138.472 1061 138.233C1060.77 137.994 1060.77 137.608 1061 137.369L1069.65 128.712C1069.89 128.473 1070.28 128.473 1070.52 128.712ZM1051.49 147.754C1051.73 147.992 1051.73 148.379 1051.49 148.618L1042.84 157.275C1042.6 157.513 1042.21 157.513 1041.98 157.275C1041.74 157.036 1041.74 156.65 1041.98 156.411L1050.63 147.754C1050.86 147.515 1051.25 147.515 1051.49 147.754ZM1032.46 166.796C1032.7 167.034 1032.7 167.421 1032.46 167.66L1023.81 176.317C1023.57 176.555 1023.19 176.555 1022.95 176.317C1022.71 176.078 1022.71 175.692 1022.95 175.453L1031.6 166.796C1031.84 166.557 1032.22 166.557 1032.46 166.796ZM1013.43 185.838C1013.67 186.076 1013.67 186.463 1013.43 186.702L1004.78 195.359C1004.54 195.597 1004.16 195.597 1003.92 195.359C1003.68 195.12 1003.68 194.733 1003.92 194.495L1012.57 185.838C1012.81 185.599 1013.19 185.599 1013.43 185.838ZM994.405 204.88C994.643 205.118 994.643 205.505 994.405 205.744L985.754 214.401C985.515 214.639 985.129 214.639 984.89 214.401C984.652 214.162 984.652 213.775 984.891 213.537L993.541 204.88C993.78 204.641 994.166 204.641 994.405 204.88ZM975.376 223.922C975.615 224.16 975.615 224.547 975.376 224.785L966.725 233.443C966.487 233.681 966.101 233.681 965.862 233.443C965.624 233.204 965.624 232.817 965.862 232.579L974.513 223.922C974.752 223.683 975.138 223.683 975.376 223.922ZM956.348 242.964C956.587 243.202 956.587 243.589 956.348 243.827L947.697 252.485C947.459 252.723 947.072 252.723 946.834 252.485C946.596 252.246 946.596 251.859 946.834 251.621L955.485 242.964C955.723 242.725 956.11 242.725 956.348 242.964ZM937.32 262.006C937.558 262.244 937.558 262.631 937.32 262.869L928.669 271.526C928.431 271.765 928.044 271.765 927.806 271.526C927.567 271.288 927.567 270.901 927.806 270.663L936.457 262.006C936.695 261.767 937.082 261.767 937.32 262.006ZM918.292 281.047C918.53 281.286 918.53 281.673 918.292 281.911L909.641 290.568C909.402 290.807 909.016 290.807 908.778 290.568C908.539 290.33 908.539 289.943 908.778 289.705L917.428 281.047C917.667 280.809 918.053 280.809 918.292 281.047ZM899.263 300.089C899.502 300.328 899.502 300.715 899.263 300.953L890.613 309.61C890.374 309.849 889.988 309.849 889.749 309.61C889.511 309.372 889.511 308.985 889.749 308.747L898.4 300.089C898.639 299.851 899.025 299.851 899.263 300.089ZM880.235 319.131C880.474 319.37 880.474 319.757 880.235 319.995L871.584 328.652C871.346 328.891 870.959 328.891 870.721 328.652C870.483 328.414 870.483 328.027 870.721 327.788L879.372 319.131C879.61 318.893 879.997 318.893 880.235 319.131ZM861.207 338.173C861.445 338.412 861.445 338.799 861.207 339.037L852.556 347.694C852.318 347.933 851.931 347.933 851.693 347.694C851.454 347.456 851.454 347.069 851.693 346.83L860.344 338.173C860.582 337.935 860.969 337.935 861.207 338.173ZM842.179 357.215C842.417 357.454 842.417 357.84 842.179 358.079L833.528 366.736C833.29 366.975 832.903 366.975 832.665 366.736C832.426 366.498 832.426 366.111 832.665 365.872L841.316 357.215C841.554 356.977 841.94 356.977 842.179 357.215ZM823.151 376.257C823.389 376.496 823.389 376.882 823.151 377.121L814.5 385.778C814.261 386.017 813.875 386.017 813.636 385.778C813.398 385.54 813.398 385.153 813.636 384.914L822.287 376.257C822.526 376.019 822.912 376.019 823.151 376.257ZM804.122 395.299C804.361 395.538 804.361 395.924 804.122 396.163L795.471 404.82C795.233 405.059 794.846 405.059 794.608 404.82C794.37 404.582 794.37 404.195 794.608 403.956L803.259 395.299C803.497 395.061 803.884 395.061 804.122 395.299ZM785.094 414.341C785.332 414.579 785.332 414.966 785.094 415.205L776.443 423.862C776.205 424.101 775.818 424.1 775.58 423.862C775.342 423.623 775.342 423.237 775.58 422.998L784.231 414.341C784.469 414.102 784.856 414.102 785.094 414.341ZM766.066 433.383C766.304 433.621 766.304 434.008 766.066 434.247L757.415 442.904C757.176 443.142 756.79 443.142 756.552 442.904C756.313 442.665 756.313 442.279 756.552 442.04L765.203 433.383C765.441 433.144 765.827 433.144 766.066 433.383ZM747.038 452.425C747.276 452.663 747.276 453.05 747.038 453.289L738.387 461.946C738.148 462.184 737.762 462.184 737.523 461.946C737.285 461.707 737.285 461.321 737.523 461.082L746.174 452.425C746.413 452.186 746.799 452.186 747.038 452.425ZM728.009 471.467C728.248 471.705 728.248 472.092 728.009 472.331L719.358 480.988C719.12 481.226 718.733 481.226 718.495 480.988C718.257 480.749 718.257 480.363 718.495 480.124L727.146 471.467C727.384 471.228 727.771 471.228 728.009 471.467ZM708.981 490.509C709.219 490.747 709.219 491.134 708.981 491.373L700.33 500.03C700.092 500.268 699.705 500.268 699.467 500.03C699.228 499.791 699.228 499.405 699.467 499.166L708.118 490.509C708.356 490.27 708.743 490.27 708.981 490.509ZM689.953 509.551C690.191 509.789 690.191 510.176 689.953 510.415L681.302 519.072C681.063 519.31 680.677 519.31 680.438 519.072C680.2 518.833 680.2 518.447 680.438 518.208L689.089 509.551C689.328 509.312 689.714 509.312 689.953 509.551ZM670.924 528.593C671.163 528.831 671.163 529.218 670.924 529.457L662.273 538.114C662.035 538.352 661.649 538.352 661.41 538.114C661.172 537.875 661.172 537.489 661.41 537.25L670.061 528.593C670.3 528.354 670.686 528.354 670.924 528.593ZM651.896 547.635C652.134 547.873 652.134 548.26 651.896 548.499L643.245 557.156C643.007 557.394 642.62 557.394 642.382 557.156C642.144 556.917 642.144 556.531 642.382 556.292L651.033 547.635C651.271 547.396 651.658 547.396 651.896 547.635ZM632.868 566.677C633.106 566.915 633.106 567.302 632.868 567.541L624.217 576.198C623.978 576.436 623.592 576.436 623.354 576.198C623.115 575.959 623.115 575.572 623.354 575.334L632.005 566.677C632.243 566.438 632.629 566.438 632.868 566.677ZM613.839 585.719C614.078 585.957 614.078 586.344 613.839 586.583L605.189 595.24C604.95 595.478 604.564 595.478 604.325 595.24C604.087 595.001 604.087 594.614 604.325 594.376L612.976 585.719C613.215 585.48 613.601 585.48 613.839 585.719ZM594.811 604.761C595.05 604.999 595.05 605.386 594.811 605.625L586.16 614.282C585.922 614.52 585.535 614.52 585.297 614.282C585.059 614.043 585.059 613.657 585.297 613.418L593.948 604.761C594.186 604.522 594.573 604.522 594.811 604.761ZM575.783 623.803C576.021 624.041 576.021 624.428 575.783 624.667L567.132 633.324C566.894 633.562 566.507 633.562 566.269 633.324C566.03 633.085 566.03 632.698 566.269 632.46L574.92 623.803C575.158 623.564 575.545 623.564 575.783 623.803ZM556.755 642.845C556.993 643.083 556.993 643.47 556.755 643.709L548.104 652.366C547.865 652.604 547.479 652.604 547.24 652.366C547.002 652.127 547.002 651.74 547.24 651.502L555.891 642.845C556.13 642.606 556.516 642.606 556.755 642.845ZM537.726 661.887C537.965 662.125 537.965 662.512 537.726 662.751L529.075 671.408C528.837 671.646 528.451 671.646 528.212 671.408C527.974 671.169 527.974 670.782 528.212 670.544L536.863 661.887C537.101 661.648 537.488 661.648 537.726 661.887ZM518.698 680.929C518.936 681.167 518.936 681.554 518.698 681.793L510.047 690.45C509.809 690.688 509.422 690.688 509.184 690.45C508.946 690.211 508.945 689.824 509.184 689.586L517.835 680.929C518.073 680.69 518.46 680.69 518.698 680.929ZM499.67 699.971C499.908 700.209 499.908 700.596 499.67 700.834L491.019 709.492C490.78 709.73 490.394 709.73 490.156 709.492C489.917 709.253 489.917 708.866 490.156 708.628L498.807 699.971C499.045 699.732 499.431 699.732 499.67 699.971ZM480.642 719.013C480.88 719.251 480.88 719.638 480.641 719.876L471.99 728.534C471.752 728.772 471.366 728.772 471.127 728.534C470.889 728.295 470.889 727.908 471.127 727.67L479.778 719.013C480.017 718.774 480.403 718.774 480.642 719.013ZM461.613 738.055C461.852 738.293 461.852 738.68 461.613 738.918L452.962 747.576C452.724 747.814 452.337 747.814 452.099 747.576C451.861 747.337 451.861 746.95 452.099 746.712L460.75 738.055C460.988 737.816 461.375 737.816 461.613 738.055ZM442.585 757.097C442.823 757.335 442.823 757.722 442.585 757.96L433.934 766.618C433.696 766.856 433.309 766.856 433.071 766.618C432.832 766.379 432.832 765.992 433.071 765.754L441.722 757.097C441.96 756.858 442.347 756.858 442.585 757.097ZM423.557 776.139C423.795 776.377 423.795 776.764 423.557 777.002L414.906 785.66C414.667 785.898 414.281 785.898 414.042 785.66C413.804 785.421 413.804 785.034 414.042 784.796L422.693 776.139C422.932 775.9 423.318 775.9 423.557 776.139ZM404.528 795.181C404.767 795.419 404.767 795.806 404.528 796.044L395.877 804.702C395.639 804.94 395.253 804.94 395.014 804.702C394.776 804.463 394.776 804.076 395.014 803.838L403.665 795.181C403.903 794.942 404.29 794.942 404.528 795.181ZM385.5 814.223C385.738 814.461 385.738 814.848 385.5 815.087L376.849 823.744C376.611 823.982 376.224 823.982 375.986 823.744C375.748 823.505 375.748 823.118 375.986 822.88L384.637 814.223C384.875 813.984 385.262 813.984 385.5 814.223ZM366.472 833.265C366.71 833.503 366.71 833.89 366.472 834.128L357.821 842.786C357.582 843.024 357.196 843.024 356.958 842.786C356.719 842.547 356.719 842.16 356.958 841.922L365.609 833.265C365.847 833.026 366.233 833.026 366.472 833.265ZM347.443 852.307C347.682 852.545 347.682 852.932 347.443 853.17L338.792 861.828C338.554 862.066 338.168 862.066 337.929 861.828C337.691 861.589 337.691 861.202 337.929 860.964L346.58 852.307C346.819 852.068 347.205 852.068 347.443 852.307ZM328.415 871.348C328.654 871.587 328.654 871.974 328.415 872.212L319.764 880.87C319.526 881.108 319.139 881.108 318.901 880.87C318.663 880.631 318.663 880.244 318.901 880.006L327.552 871.348C327.79 871.11 328.177 871.11 328.415 871.348ZM309.387 890.39C309.625 890.629 309.625 891.016 309.387 891.254L300.736 899.911C300.498 900.15 300.111 900.15 299.873 899.911C299.634 899.673 299.634 899.286 299.873 899.048L308.524 890.391C308.762 890.152 309.149 890.152 309.387 890.39ZM290.359 909.432C290.597 909.671 290.597 910.058 290.359 910.296L281.708 918.953C281.469 919.192 281.083 919.192 280.845 918.953C280.606 918.715 280.606 918.328 280.845 918.089L289.496 909.432C289.734 909.194 290.12 909.194 290.359 909.432ZM271.331 928.474C271.569 928.713 271.569 929.1 271.331 929.338L262.68 937.995C262.441 938.234 262.055 938.234 261.816 937.995C261.578 937.757 261.578 937.37 261.816 937.131L270.467 928.474C270.706 928.236 271.092 928.236 271.331 928.474ZM252.302 947.516C252.541 947.755 252.541 948.141 252.302 948.38L243.651 957.037C243.413 957.276 243.027 957.276 242.788 957.037C242.55 956.799 242.55 956.412 242.788 956.173L251.439 947.516C251.678 947.278 252.064 947.278 252.302 947.516ZM233.274 966.558C233.513 966.796 233.513 967.183 233.274 967.422L224.623 976.079C224.385 976.317 223.998 976.318 223.76 976.079C223.522 975.84 223.522 975.454 223.76 975.215L232.411 966.558C232.649 966.319 233.036 966.319 233.274 966.558ZM214.246 985.6C214.484 985.838 214.484 986.225 214.246 986.464L205.595 995.121C205.357 995.359 204.97 995.359 204.732 995.121C204.494 994.882 204.494 994.495 204.732 994.257L213.383 985.6C213.621 985.361 214.008 985.361 214.246 985.6ZM195.218 1004.64C195.456 1004.88 195.456 1005.27 195.218 1005.51L186.567 1014.16C186.329 1014.4 185.942 1014.4 185.704 1014.16C185.465 1013.92 185.465 1013.54 185.704 1013.3L194.355 1004.64C194.593 1004.4 194.979 1004.4 195.218 1004.64ZM176.19 1023.68C176.428 1023.92 176.428 1024.31 176.19 1024.55L167.539 1033.2C167.3 1033.44 166.914 1033.44 166.676 1033.2C166.437 1032.97 166.437 1032.58 166.676 1032.34L175.326 1023.68C175.565 1023.45 175.951 1023.45 176.19 1023.68ZM157.161 1042.73C157.4 1042.96 157.4 1043.35 157.161 1043.59L148.511 1052.25C148.272 1052.48 147.886 1052.49 147.647 1052.25C147.409 1052.01 147.409 1051.62 147.647 1051.38L156.298 1042.73C156.537 1042.49 156.923 1042.49 157.161 1042.73ZM138.133 1061.77C138.372 1062.01 138.372 1062.39 138.133 1062.63L129.482 1071.29C129.244 1071.53 128.858 1071.53 128.619 1071.29C128.381 1071.05 128.381 1070.66 128.619 1070.42L137.27 1061.77C137.508 1061.53 137.895 1061.53 138.133 1061.77ZM119.105 1080.81C119.343 1081.05 119.343 1081.43 119.105 1081.67L110.454 1090.33C110.216 1090.57 109.829 1090.57 109.591 1090.33C109.353 1090.09 109.353 1089.7 109.591 1089.47L118.242 1080.81C118.48 1080.57 118.867 1080.57 119.105 1080.81ZM100.077 1099.85C100.315 1100.09 100.315 1100.48 100.077 1100.72L91.426 1109.37C91.1876 1109.61 90.8012 1109.61 90.5628 1109.37C90.3245 1109.13 90.3244 1108.75 90.5628 1108.51L99.2137 1099.85C99.4521 1099.61 99.8385 1099.61 100.077 1099.85ZM81.0487 1118.89C81.2871 1119.13 81.2871 1119.52 81.0487 1119.76L72.3978 1128.41C72.1595 1128.65 71.773 1128.65 71.5346 1128.41C71.2963 1128.18 71.2963 1127.79 71.5346 1127.55L80.1855 1118.89C80.4239 1118.65 80.8104 1118.65 81.0487 1118.89ZM62.0206 1137.93C62.2589 1138.17 62.2589 1138.56 62.0205 1138.8L53.3696 1147.46C53.1313 1147.69 52.7448 1147.69 52.5065 1147.46C52.2681 1147.22 52.2681 1146.83 52.5064 1146.59L61.1573 1137.93C61.3957 1137.7 61.7822 1137.7 62.0206 1137.93ZM42.9923 1156.98C43.2307 1157.22 43.2307 1157.6 42.9924 1157.84L34.3415 1166.5C34.1031 1166.74 33.7166 1166.74 33.4783 1166.5C33.2399 1166.26 33.2399 1165.87 33.4783 1165.63L42.1292 1156.98C42.3675 1156.74 42.754 1156.74 42.9923 1156.98ZM23.9642 1176.02C24.2025 1176.26 24.2025 1176.64 23.9642 1176.88L15.3133 1185.54C15.0749 1185.78 14.6884 1185.78 14.4501 1185.54C14.2117 1185.3 14.2117 1184.91 14.4501 1184.68L23.1009 1176.02C23.3393 1175.78 23.7258 1175.78 23.9642 1176.02ZM4.93598 1195.06C5.17435 1195.3 5.17435 1195.69 4.93599 1195.92L1.04201 1199.82C0.803631 1200.06 0.417138 1200.06 0.178766 1199.82C-0.0595946 1199.58 -0.0595881 1199.2 0.178782 1198.96L4.07279 1195.06C4.31115 1194.82 4.69761 1194.82 4.93598 1195.06ZM1.04175 0.178904C0.803388 0.417442 0.803388 0.80419 1.04175 1.04273L4.93561 4.93939C5.17398 5.17793 5.56045 5.17793 5.79882 4.93939C6.03718 4.70085 6.03718 4.3141 5.79882 4.07556L1.90496 0.178904C1.66659 -0.0596346 1.28012 -0.0596346 1.04175 0.178904ZM15.3129 14.4604C15.0746 14.6989 15.0746 15.0856 15.3129 15.3242L23.9639 23.9813C24.2022 24.2199 24.5887 24.2199 24.8271 23.9813C25.0654 23.7428 25.0654 23.356 24.8271 23.1175L16.1761 14.4604C15.9378 14.2218 15.5513 14.2218 15.3129 14.4604ZM34.3412 33.5023C34.1028 33.7408 34.1028 34.1276 34.3412 34.3661L42.9921 43.0233C43.2305 43.2618 43.6169 43.2618 43.8553 43.0233C44.0937 42.7847 44.0937 42.398 43.8553 42.1594L35.2044 33.5023C34.966 33.2638 34.5796 33.2638 34.3412 33.5023ZM53.3694 52.5442C53.1311 52.7828 53.1311 53.1695 53.3694 53.4081L62.0204 62.0652C62.2587 62.3037 62.6452 62.3037 62.8836 62.0652C63.1219 61.8267 63.1219 61.4399 62.8836 61.2014L54.2326 52.5442C53.9943 52.3057 53.6078 52.3057 53.3694 52.5442ZM72.3977 71.5862C72.1593 71.8247 72.1593 72.2115 72.3977 72.45L81.0486 81.1072C81.287 81.3457 81.6734 81.3457 81.9118 81.1072C82.1502 80.8686 82.1502 80.4819 81.9118 80.2433L73.2609 71.5862C73.0225 71.3476 72.636 71.3476 72.3977 71.5862ZM91.4259 90.6281C91.1876 90.8667 91.1876 91.2534 91.4259 91.492L100.077 100.149C100.315 100.388 100.702 100.388 100.94 100.149C101.178 99.9106 101.178 99.5238 100.94 99.2853L92.2891 90.6281C92.0508 90.3896 91.6643 90.3896 91.4259 90.6281ZM110.454 109.67C110.216 109.909 110.216 110.295 110.454 110.534L119.105 119.191C119.343 119.43 119.73 119.43 119.968 119.191C120.207 118.953 120.207 118.566 119.968 118.327L111.317 109.67C111.079 109.432 110.693 109.432 110.454 109.67ZM129.482 128.712C129.244 128.951 129.244 129.337 129.482 129.576L138.133 138.233C138.372 138.472 138.758 138.472 138.997 138.233C139.235 137.994 139.235 137.608 138.997 137.369L130.346 128.712C130.107 128.473 129.721 128.473 129.482 128.712ZM148.511 147.754C148.272 147.992 148.272 148.379 148.511 148.618L157.162 157.275C157.4 157.513 157.786 157.513 158.025 157.275C158.263 157.036 158.263 156.65 158.025 156.411L149.374 147.754C149.135 147.515 148.749 147.515 148.511 147.754ZM167.539 166.796C167.301 167.034 167.301 167.421 167.539 167.66L176.19 176.317C176.428 176.555 176.815 176.555 177.053 176.317C177.291 176.078 177.291 175.692 177.053 175.453L168.402 166.796C168.164 166.557 167.777 166.557 167.539 166.796ZM186.567 185.838C186.329 186.076 186.329 186.463 186.567 186.702L195.218 195.359C195.456 195.597 195.843 195.597 196.081 195.359C196.32 195.12 196.32 194.733 196.081 194.495L187.43 185.838C187.192 185.599 186.806 185.599 186.567 185.838ZM205.595 204.88C205.357 205.118 205.357 205.505 205.595 205.744L214.246 214.401C214.485 214.639 214.871 214.639 215.11 214.401C215.348 214.162 215.348 213.775 215.109 213.537L206.459 204.88C206.22 204.641 205.834 204.641 205.595 204.88ZM224.624 223.922C224.385 224.16 224.385 224.547 224.624 224.785L233.275 233.443C233.513 233.681 233.899 233.681 234.138 233.443C234.376 233.204 234.376 232.817 234.138 232.579L225.487 223.922C225.248 223.683 224.862 223.683 224.624 223.922ZM243.652 242.964C243.413 243.202 243.413 243.589 243.652 243.827L252.303 252.485C252.541 252.723 252.928 252.723 253.166 252.485C253.404 252.246 253.404 251.859 253.166 251.621L244.515 242.964C244.277 242.725 243.89 242.725 243.652 242.964ZM262.68 262.006C262.442 262.244 262.442 262.631 262.68 262.869L271.331 271.526C271.569 271.765 271.956 271.765 272.194 271.526C272.433 271.288 272.433 270.901 272.194 270.663L263.543 262.006C263.305 261.767 262.918 261.767 262.68 262.006ZM281.708 281.047C281.47 281.286 281.47 281.673 281.708 281.911L290.359 290.568C290.598 290.807 290.984 290.807 291.222 290.568C291.461 290.33 291.461 289.943 291.222 289.705L282.572 281.047C282.333 280.809 281.947 280.809 281.708 281.047ZM300.737 300.089C300.498 300.328 300.498 300.715 300.737 300.953L309.387 309.61C309.626 309.849 310.012 309.849 310.251 309.61C310.489 309.372 310.489 308.985 310.251 308.747L301.6 300.089C301.361 299.851 300.975 299.851 300.737 300.089ZM319.765 319.131C319.526 319.37 319.526 319.757 319.765 319.995L328.416 328.652C328.654 328.891 329.04 328.891 329.279 328.652C329.517 328.414 329.517 328.027 329.279 327.788L320.628 319.131C320.39 318.893 320.003 318.893 319.765 319.131ZM338.793 338.173C338.555 338.412 338.555 338.799 338.793 339.037L347.444 347.694C347.682 347.933 348.069 347.933 348.307 347.694C348.545 347.456 348.545 347.069 348.307 346.83L339.656 338.173C339.418 337.935 339.031 337.935 338.793 338.173ZM357.821 357.215C357.583 357.454 357.583 357.84 357.821 358.079L366.472 366.736C366.711 366.975 367.097 366.975 367.335 366.736C367.574 366.498 367.574 366.111 367.335 365.872L358.684 357.215C358.446 356.977 358.06 356.977 357.821 357.215ZM376.849 376.257C376.611 376.496 376.611 376.882 376.849 377.121L385.5 385.778C385.739 386.017 386.125 386.017 386.364 385.778C386.602 385.54 386.602 385.153 386.364 384.914L377.713 376.257C377.474 376.019 377.088 376.019 376.849 376.257ZM395.878 395.299C395.639 395.538 395.639 395.924 395.878 396.163L404.529 404.82C404.767 405.059 405.153 405.059 405.392 404.82C405.63 404.582 405.63 404.195 405.392 403.956L396.741 395.299C396.503 395.061 396.116 395.061 395.878 395.299ZM414.906 414.341C414.668 414.58 414.668 414.966 414.906 415.205L423.557 423.862C423.795 424.1 424.182 424.1 424.42 423.862C424.658 423.623 424.658 423.237 424.42 422.998L415.769 414.341C415.531 414.102 415.144 414.102 414.906 414.341ZM433.934 433.383C433.696 433.621 433.696 434.008 433.934 434.247L442.585 442.904C442.823 443.142 443.21 443.142 443.448 442.904C443.687 442.665 443.687 442.279 443.448 442.04L434.797 433.383C434.559 433.144 434.173 433.144 433.934 433.383ZM452.962 452.425C452.724 452.663 452.724 453.05 452.962 453.289L461.613 461.946C461.852 462.184 462.238 462.184 462.477 461.946C462.715 461.707 462.715 461.321 462.477 461.082L453.826 452.425C453.587 452.186 453.201 452.186 452.962 452.425ZM471.991 471.467C471.752 471.705 471.752 472.092 471.991 472.331L480.642 480.988C480.88 481.226 481.267 481.226 481.505 480.988C481.743 480.749 481.743 480.363 481.505 480.124L472.854 471.467C472.616 471.228 472.229 471.228 471.991 471.467ZM491.019 490.509C490.781 490.747 490.781 491.134 491.019 491.373L499.67 500.03C499.908 500.268 500.295 500.268 500.533 500.03C500.772 499.791 500.772 499.405 500.533 499.166L491.882 490.509C491.644 490.27 491.257 490.27 491.019 490.509ZM510.047 509.551C509.809 509.789 509.809 510.176 510.047 510.415L518.698 519.072C518.937 519.31 519.323 519.31 519.561 519.072C519.8 518.833 519.8 518.447 519.561 518.208L510.911 509.551C510.672 509.312 510.286 509.312 510.047 509.551ZM529.076 528.593C528.837 528.831 528.837 529.218 529.076 529.457L537.727 538.114C537.965 538.352 538.351 538.352 538.59 538.114C538.828 537.875 538.828 537.489 538.59 537.25L529.939 528.593C529.7 528.354 529.314 528.354 529.076 528.593ZM548.104 547.635C547.866 547.873 547.866 548.26 548.104 548.499L556.755 557.156C556.993 557.394 557.38 557.394 557.618 557.156C557.856 556.917 557.856 556.531 557.618 556.292L548.967 547.635C548.729 547.396 548.342 547.396 548.104 547.635ZM567.132 566.677C566.894 566.915 566.894 567.302 567.132 567.541L575.783 576.198C576.021 576.436 576.408 576.436 576.646 576.198C576.885 575.959 576.885 575.572 576.646 575.334L567.995 566.677C567.757 566.438 567.371 566.438 567.132 566.677ZM586.16 585.719C585.922 585.957 585.922 586.344 586.16 586.583L594.811 595.24C595.05 595.478 595.436 595.478 595.675 595.24C595.913 595.001 595.913 594.614 595.675 594.376L587.024 585.719C586.785 585.48 586.399 585.48 586.16 585.719ZM605.189 604.761C604.95 604.999 604.95 605.386 605.189 605.625L613.84 614.282C614.078 614.52 614.465 614.52 614.703 614.282C614.941 614.043 614.941 613.657 614.703 613.418L606.052 604.761C605.814 604.522 605.427 604.522 605.189 604.761ZM624.217 623.803C623.979 624.041 623.979 624.428 624.217 624.667L632.868 633.324C633.106 633.562 633.493 633.562 633.731 633.324C633.97 633.085 633.97 632.698 633.731 632.46L625.08 623.803C624.842 623.564 624.455 623.564 624.217 623.803ZM643.245 642.845C643.007 643.083 643.007 643.47 643.245 643.709L651.896 652.366C652.135 652.604 652.521 652.604 652.759 652.366C652.998 652.127 652.998 651.74 652.759 651.502L644.109 642.845C643.87 642.606 643.484 642.606 643.245 642.845ZM662.274 661.887C662.035 662.125 662.035 662.512 662.274 662.751L670.925 671.408C671.163 671.646 671.549 671.646 671.788 671.408C672.026 671.169 672.026 670.782 671.788 670.544L663.137 661.887C662.898 661.648 662.512 661.648 662.274 661.887ZM681.302 680.929C681.064 681.167 681.064 681.554 681.302 681.793L689.953 690.45C690.191 690.688 690.578 690.688 690.816 690.45C691.054 690.211 691.054 689.824 690.816 689.586L682.165 680.929C681.927 680.69 681.54 680.69 681.302 680.929ZM700.33 699.971C700.092 700.209 700.092 700.596 700.33 700.835L708.981 709.492C709.22 709.73 709.606 709.73 709.844 709.492C710.083 709.253 710.083 708.866 709.844 708.628L701.193 699.971C700.955 699.732 700.569 699.732 700.33 699.971ZM719.358 719.013C719.12 719.251 719.12 719.638 719.358 719.876L728.009 728.534C728.248 728.772 728.634 728.772 728.873 728.534C729.111 728.295 729.111 727.908 728.873 727.67L720.222 719.013C719.983 718.774 719.597 718.774 719.358 719.013ZM738.387 738.055C738.148 738.293 738.148 738.68 738.387 738.918L747.038 747.576C747.276 747.814 747.663 747.814 747.901 747.576C748.139 747.337 748.139 746.95 747.901 746.712L739.25 738.055C739.012 737.816 738.625 737.816 738.387 738.055ZM757.415 757.097C757.177 757.335 757.177 757.722 757.415 757.96L766.066 766.618C766.305 766.856 766.691 766.856 766.929 766.618C767.168 766.379 767.168 765.992 766.929 765.754L758.278 757.097C758.04 756.858 757.654 756.858 757.415 757.097ZM776.443 776.139C776.205 776.377 776.205 776.764 776.443 777.002L785.094 785.66C785.333 785.898 785.719 785.898 785.958 785.66C786.196 785.421 786.196 785.034 785.958 784.796L777.307 776.139C777.068 775.9 776.682 775.9 776.443 776.139ZM795.472 795.181C795.233 795.419 795.233 795.806 795.472 796.044L804.123 804.702C804.361 804.94 804.747 804.94 804.986 804.702C805.224 804.463 805.224 804.076 804.986 803.838L796.335 795.181C796.097 794.942 795.71 794.942 795.472 795.181ZM814.5 814.223C814.262 814.461 814.262 814.848 814.5 815.086L823.151 823.744C823.389 823.982 823.776 823.982 824.014 823.744C824.252 823.505 824.252 823.118 824.014 822.88L815.363 814.223C815.125 813.984 814.738 813.984 814.5 814.223ZM833.528 833.265C833.29 833.503 833.29 833.89 833.528 834.128L842.179 842.786C842.418 843.024 842.804 843.024 843.042 842.786C843.281 842.547 843.281 842.16 843.042 841.922L834.391 833.265C834.153 833.026 833.767 833.026 833.528 833.265ZM852.557 852.307C852.318 852.545 852.318 852.932 852.557 853.17L861.207 861.828C861.446 862.066 861.832 862.066 862.071 861.828C862.309 861.589 862.309 861.202 862.071 860.964L853.42 852.307C853.181 852.068 852.795 852.068 852.557 852.307ZM871.585 871.349C871.346 871.587 871.346 871.974 871.585 872.212L880.236 880.87C880.474 881.108 880.861 881.108 881.099 880.87C881.337 880.631 881.337 880.244 881.099 880.006L872.448 871.348C872.21 871.11 871.823 871.11 871.585 871.349ZM890.613 890.391C890.375 890.629 890.375 891.016 890.613 891.254L899.264 899.911C899.502 900.15 899.889 900.15 900.127 899.911C900.366 899.673 900.366 899.286 900.127 899.048L891.476 890.391C891.238 890.152 890.851 890.152 890.613 890.391ZM909.641 909.432C909.403 909.671 909.403 910.058 909.641 910.296L918.292 918.953C918.53 919.192 918.917 919.192 919.155 918.953C919.394 918.715 919.394 918.328 919.155 918.089L910.504 909.432C910.266 909.194 909.88 909.194 909.641 909.432ZM928.669 928.474C928.431 928.713 928.431 929.1 928.669 929.338L937.32 937.995C937.559 938.234 937.945 938.234 938.184 937.995C938.422 937.757 938.422 937.37 938.184 937.131L929.533 928.474C929.294 928.236 928.908 928.236 928.669 928.474ZM947.698 947.516C947.459 947.755 947.459 948.141 947.698 948.38L956.348 957.037C956.587 957.276 956.973 957.276 957.212 957.037C957.45 956.799 957.45 956.412 957.212 956.173L948.561 947.516C948.322 947.278 947.936 947.278 947.698 947.516ZM966.726 966.558C966.487 966.797 966.487 967.183 966.726 967.422L975.377 976.079C975.615 976.317 976.002 976.318 976.24 976.079C976.478 975.84 976.478 975.454 976.24 975.215L967.589 966.558C967.351 966.319 966.964 966.319 966.726 966.558ZM985.754 985.6C985.516 985.838 985.516 986.225 985.754 986.464L994.405 995.121C994.643 995.359 995.03 995.359 995.268 995.121C995.506 994.882 995.506 994.495 995.268 994.257L986.617 985.6C986.379 985.361 985.992 985.361 985.754 985.6ZM1004.78 1004.64C1004.54 1004.88 1004.54 1005.27 1004.78 1005.51L1013.43 1014.16C1013.67 1014.4 1014.06 1014.4 1014.3 1014.16C1014.53 1013.92 1014.53 1013.54 1014.3 1013.3L1005.65 1004.64C1005.41 1004.4 1005.02 1004.4 1004.78 1004.64ZM1023.81 1023.68C1023.57 1023.92 1023.57 1024.31 1023.81 1024.55L1032.46 1033.2C1032.7 1033.44 1033.09 1033.44 1033.32 1033.2C1033.56 1032.97 1033.56 1032.58 1033.32 1032.34L1024.67 1023.68C1024.44 1023.45 1024.05 1023.45 1023.81 1023.68ZM1042.84 1042.73C1042.6 1042.96 1042.6 1043.35 1042.84 1043.59L1051.49 1052.25C1051.73 1052.48 1052.11 1052.49 1052.35 1052.25C1052.59 1052.01 1052.59 1051.62 1052.35 1051.38L1043.7 1042.73C1043.46 1042.49 1043.08 1042.49 1042.84 1042.73ZM1061.87 1061.77C1061.63 1062.01 1061.63 1062.39 1061.87 1062.63L1070.52 1071.29C1070.76 1071.53 1071.14 1071.53 1071.38 1071.29C1071.62 1071.05 1071.62 1070.66 1071.38 1070.42L1062.73 1061.77C1062.49 1061.53 1062.11 1061.53 1061.87 1061.77ZM1080.89 1080.81C1080.66 1081.05 1080.66 1081.43 1080.89 1081.67L1089.55 1090.33C1089.78 1090.57 1090.17 1090.57 1090.41 1090.33C1090.65 1090.09 1090.65 1089.7 1090.41 1089.47L1081.76 1080.81C1081.52 1080.57 1081.13 1080.57 1080.89 1080.81ZM1099.92 1099.85C1099.68 1100.09 1099.68 1100.48 1099.92 1100.71L1108.57 1109.37C1108.81 1109.61 1109.2 1109.61 1109.44 1109.37C1109.68 1109.13 1109.68 1108.75 1109.44 1108.51L1100.79 1099.85C1100.55 1099.61 1100.16 1099.61 1099.92 1099.85ZM1118.95 1118.89C1118.71 1119.13 1118.71 1119.52 1118.95 1119.76L1127.6 1128.41C1127.84 1128.65 1128.23 1128.65 1128.47 1128.41C1128.7 1128.18 1128.7 1127.79 1128.47 1127.55L1119.81 1118.89C1119.58 1118.65 1119.19 1118.65 1118.95 1118.89ZM1137.98 1137.93C1137.74 1138.17 1137.74 1138.56 1137.98 1138.8L1146.63 1147.46C1146.87 1147.69 1147.26 1147.69 1147.49 1147.46C1147.73 1147.22 1147.73 1146.83 1147.49 1146.59L1138.84 1137.93C1138.6 1137.7 1138.22 1137.7 1137.98 1137.93ZM1157.01 1156.98C1156.77 1157.22 1156.77 1157.6 1157.01 1157.84L1165.66 1166.5C1165.9 1166.74 1166.28 1166.74 1166.52 1166.5C1166.76 1166.26 1166.76 1165.87 1166.52 1165.63L1157.87 1156.98C1157.63 1156.74 1157.25 1156.74 1157.01 1156.98ZM1176.04 1176.02C1175.8 1176.26 1175.8 1176.64 1176.04 1176.88L1184.69 1185.54C1184.93 1185.78 1185.31 1185.78 1185.55 1185.54C1185.79 1185.3 1185.79 1184.91 1185.55 1184.68L1176.9 1176.02C1176.66 1175.78 1176.27 1175.78 1176.04 1176.02ZM1195.06 1195.06C1194.83 1195.3 1194.83 1195.69 1195.06 1195.92L1198.96 1199.82C1199.2 1200.06 1199.58 1200.06 1199.82 1199.82C1200.06 1199.58 1200.06 1199.2 1199.82 1198.96L1195.93 1195.06C1195.69 1194.82 1195.3 1194.82 1195.06 1195.06Z" fill="white"/>
<g filter="url(#filter0_bd_8975_4819)">
<rect x="564" y="563" width="72" height="72" rx="36" fill="#F6F5FA" fill-opacity="0.4" shape-rendering="crispEdges"/>
<rect x="565" y="564" width="70" height="70" rx="35" stroke="url(#paint0_linear_8975_4819)" stroke-width="2" shape-rendering="crispEdges"/>
<g filter="url(#filter1_d_8975_4819)">
<path fill-rule="evenodd" clip-rule="evenodd" d="M606.162 594.17C605.664 594.163 605.117 594.161 604.492 594.161H595.506C594.879 594.161 594.332 594.163 593.834 594.17V591.483C593.891 588.13 596.564 585.471 599.921 585.428H599.997C603.362 585.428 606.121 588.141 606.162 591.496V594.17ZM601.249 606.394C601.249 607.084 600.689 607.644 599.999 607.644C599.309 607.644 598.749 607.084 598.749 606.394V602.778C598.749 602.088 599.309 601.528 599.999 601.528C600.689 601.528 601.249 602.088 601.249 602.778V606.394ZM612.599 597.464C612.019 596.268 611.047 595.301 609.871 594.746C609.501 594.566 609.106 594.446 608.662 594.36V591.481C608.602 586.706 604.661 582.823 599.889 582.928C595.172 582.988 591.414 586.728 591.334 591.461V594.36C590.894 594.445 590.501 594.563 590.134 594.741C588.951 595.3 587.979 596.266 587.394 597.469C586.822 598.674 586.822 600.068 586.822 602.844V606.394C586.822 609.186 586.822 610.588 587.396 611.769C587.967 612.973 588.912 613.919 590.136 614.514C591.331 615.078 592.726 615.078 595.506 615.078H604.492C607.272 615.078 608.666 615.078 609.871 614.509C611.069 613.926 612.037 612.953 612.597 611.776C613.176 610.588 613.176 609.186 613.176 606.394V602.844C613.176 600.068 613.176 598.674 612.599 597.464Z" fill="white"/>
</g>
</g>
<defs>
<filter id="filter0_bd_8975_4819" x="548" y="555" width="104" height="104" filterUnits="userSpaceOnUse" color-interpolation-filters="sRGB">
<feFlood flood-opacity="0" result="BackgroundImageFix"/>
<feGaussianBlur in="BackgroundImageFix" stdDeviation="4"/>
<feComposite in2="SourceAlpha" operator="in" result="effect1_backgroundBlur_8975_4819"/>
<feColorMatrix in="SourceAlpha" type="matrix" values="0 0 0 0 0 0 0 0 0 0 0 0 0 0 0 0 0 0 127 0" result="hardAlpha"/>
<feMorphology radius="8" operator="erode" in="SourceAlpha" result="effect2_dropShadow_8975_4819"/>
<feOffset dy="8"/>
<feGaussianBlur stdDeviation="12"/>
<feComposite in2="hardAlpha" operator="out"/>
<feColorMatrix type="matrix" values="0 0 0 0 0.769534 0 0 0 0 0.701274 0 0 0 0 0.886551 0 0 0 0.7 0"/>
<feBlend mode="normal" in2="effect1_backgroundBlur_8975_4819" result="effect2_dropShadow_8975_4819"/>
<feBlend mode="normal" in="SourceGraphic" in2="effect2_dropShadow_8975_4819" result="shape"/>
</filter>
<filter id="filter1_d_8975_4819" x="572" y="579" width="56" height="56" filterUnits="userSpaceOnUse" color-interpolation-filters="sRGB">
<feFlood flood-opacity="0" result="BackgroundImageFix"/>
<feColorMatrix in="SourceAlpha" type="matrix" values="0 0 0 0 0 0 0 0 0 0 0 0 0 0 0 0 0 0 127 0" result="hardAlpha"/>
<feMorphology radius="8" operator="erode" in="SourceAlpha" result="effect1_dropShadow_8975_4819"/>
<feOffset dy="8"/>
<feGaussianBlur stdDeviation="8"/>
<feComposite in2="hardAlpha" operator="out"/>
<feColorMatrix type="matrix" values="0 0 0 0 0.769534 0 0 0 0 0.701274 0 0 0 0 0.886551 0 0 0 0.4 0"/>
<feBlend mode="normal" in2="BackgroundImageFix" result="effect1_dropShadow_8975_4819"/>
<feBlend mode="normal" in="SourceGraphic" in2="effect1_dropShadow_8975_4819" result="shape"/>
</filter>
<linearGradient id="paint0_linear_8975_4819" x1="600" y1="563" x2="600" y2="635" gradientUnits="userSpaceOnUse">
<stop stop-color="white"/>
<stop offset="1" stop-color="white" stop-opacity="0"/>
</linearGradient>
</defs>
</svg>
