<svg width="32" height="32" viewBox="0 0 32 32" fill="none" xmlns="http://www.w3.org/2000/svg">
<path fill-rule="evenodd" clip-rule="evenodd" d="M16.7109 22.1179L13.7618 24.8584C13.4008 25.195 12.8133 24.9186 12.8465 24.4258C12.9387 23.0331 13.0821 20.9173 13.1781 19.741C13.1934 19.5554 13.3496 19.348 13.4981 19.2136C16.9426 16.0904 20.3947 12.9749 23.8456 9.85682C23.9736 9.74162 24.1246 9.45746 24.0453 9.3077C23.9557 9.13874 23.5423 9.18994 23.3707 9.29746C18.988 12.0571 14.6053 14.8155 10.2289 17.5842C9.96013 17.7531 9.63117 17.7941 9.32909 17.6968C7.52429 17.117 5.70925 16.5678 3.90061 15.997C3.48461 15.8651 2.99053 15.7346 2.94317 15.2187C2.89325 14.6798 3.35533 14.4238 3.77261 14.2562C5.45453 13.5778 7.14797 12.9288 8.83885 12.276C14.9214 9.93234 21.004 7.58994 27.0866 5.24754C27.2901 5.16946 27.5614 5.12082 27.7739 5.07858C28.4114 4.95058 28.9848 5.27058 29.0475 5.9157C29.0949 6.38802 29.0117 6.9141 28.9131 7.3813C27.6459 13.4088 26.3621 19.4338 25.0795 25.46C24.7339 27.0882 23.8968 27.3966 22.549 26.4021C20.812 25.1195 16.7109 22.1179 16.7109 22.1179Z" fill="white"/>
</svg>
